<svg width="15" height="15" viewBox="0 0 15 15" fill="none" xmlns="http://www.w3.org/2000/svg">
<g clip-path="url(#clip0_16_2)">
<path d="M11.6483 4.98278H11.7569C13.0344 4.98278 13.6066 6.58516 12.6181 7.39441L12.1816 7.7517C11.1244 8.61714 10.6845 10.0292 11.0631 11.342L11.2772 12.0844C11.5968 13.1928 10.2954 14.0506 9.40277 13.3199C8.23272 12.3621 6.54961 12.3621 5.37957 13.3199C4.48698 14.0506 3.18555 13.1928 3.50518 12.0844L3.71928 11.342C4.09785 10.0292 3.65791 8.61714 2.60071 7.7517L2.16424 7.3944C1.17569 6.58516 1.74791 4.98278 3.02546 4.98278H3.13399C4.56664 4.98278 5.82646 4.03493 6.22343 2.65837C6.56124 1.48693 8.2211 1.48693 8.55891 2.65837C8.95588 4.03492 10.2157 4.98278 11.6483 4.98278Z" stroke="#E3170A" stroke-width="2"/>
<path d="M7 2.52381V10.9048M7 10.9048V13H4.45455L3.72727 6.71429L3 6.19048L3.72727 5.14286L7 2L3.72727 6.19048L6.63636 3.57143V3.04762L4.45455 12.4762L6.63636 11.9524L7 10.9048ZM5.18182 11.4286L6.63636 10.9048M6.63636 10.9048L4.81818 11.4286L6.63636 9.85714L6.27273 6.71429L6.63636 4.61905L5.18182 10.381L6.27273 8.80952L5.90909 8.28571L6.63636 10.9048ZM4.45455 7.76191L4.81818 6.71429L5.54545 5.66667L5.90909 4.61905L4.09091 6.71429L4.81818 9.85714L5.18182 7.2381L5.54545 6.19048L4.45455 10.9048" stroke="#E3170A"/>
</g>
<defs>
<clipPath id="clip0_16_2">
<rect width="15" height="15" fill="white"/>
</clipPath>
</defs>
</svg>
