<svg width="14" height="16" viewBox="0 0 14 16" fill="none" xmlns="http://www.w3.org/2000/svg">
<path d="M6.70004 0.725C6.87782 0.591666 7.12226 0.591667 7.30004 0.725L13.4667 5.35C13.5926 5.44443 13.6667 5.59262 13.6667 5.75V15C13.6667 15.2761 13.4428 15.5 13.1667 15.5H10C9.7239 15.5 9.50004 15.2761 9.50004 15V10.1667C9.50004 9.89052 9.27618 9.66667 9.00004 9.66667H5.00004C4.7239 9.66667 4.50004 9.89052 4.50004 10.1667V15C4.50004 15.2761 4.27618 15.5 4.00004 15.5H0.833374C0.557231 15.5 0.333374 15.2761 0.333374 15V5.75C0.333374 5.59262 0.407471 5.44443 0.533374 5.35L6.70004 0.725Z" fill="#434347"/>
</svg>
