<svg width="19" height="15" viewBox="0 0 19 15" fill="none" xmlns="http://www.w3.org/2000/svg">
<path d="M3.5 1.42857H15.5V8.57143H3.5M15.5 10C15.8978 10 16.2794 9.84949 16.5607 9.58158C16.842 9.31367 17 8.95031 17 8.57143V1.42857C17 0.635714 16.325 0 15.5 0H3.5C2.6675 0 2 0.635714 2 1.42857V8.57143C2 8.95031 2.15803 9.31367 2.43934 9.58158C2.72064 9.84949 3.10218 10 3.5 10H4.93035H6.69055H12.481H14.1712H15.5Z" fill="#434347"/>
<path d="M1.23925 13.3315L2.67083 9.33152C2.74199 9.13268 2.9304 9 3.14158 9H15.8584C16.0696 9 16.258 9.13268 16.3292 9.33152L17.7608 13.3315C17.8773 13.6572 17.6359 14 17.29 14H1.71C1.3641 14 1.12269 13.6572 1.23925 13.3315Z" fill="#434347" stroke="#434347"/>
<path d="M3 8V2C3 1.44772 3.44772 1 4 1H15C15.5523 1 16 1.44772 16 2V8C16 8.55229 15.5523 9 15 9H4C3.44772 9 3 8.55229 3 8Z" stroke="#434347"/>
</svg>
